<mxfile host="app.diagrams.net" modified="2023-03-28T09:45:39.422Z" agent="Mozilla/5.0 (Windows NT 10.0; Win64; x64) AppleWebKit/537.36 (KHTML, like Gecko) Chrome/111.0.0.0 Safari/537.36" version="21.1.1" etag="475v_orerY2mleTy1Lir" type="github">
  <diagram name="第 1 页" id="M3UEMc88qRYC5gh_uIqj">
    <mxGraphModel>
      <root>
        <mxCell id="0" />
        <mxCell id="1" parent="0" />
      </root>
    </mxGraphModel>
  </diagram>
</mxfile>
